# xmcd
#
# Track frame offsets: 
#        150
#        12635
#        25212
#        36695
#        47872
#        63485
#        78767
#        92500
#        106887
#        121785
#        134885
#        150522
#        164925
#        179900
#        193575
#        208387
#        223770
#        237030
#        250562
#        263902
#        276657
#        290157
#
# Disc length: 4055 seconds
#
# Revision: 2
# Processed by: cddbd v1.5.2PL0 Copyright (c) Steve Scherf et al.
# Submitted via: ExactAudioCopy v0.95b2
#
DISCID=5e0fd516
DTITLE=Various Artist - Arizona Dranes: Complete Recordings
DYEAR=1900
DGENRE=
TTITLE0=Arizona Dranes - In That Day
TTITLE1=Arizona Dranes - It's All Right Now
TTITLE2=Arizona Dranes - John Said He Saw a Number
TTITLE3=Arizona Dranes - My Soul Is a Witness for the Lord
TTITLE4=Arizona Dranes - Crucifixion
TTITLE5=Arizona Dranes - Sweet Heaven Is My Home
TTITLE6=Arizona Dranes - Bye and Bye We're Going to See the King
TTITLE7=Arizona Dranes - I'm Going Home on the Morning Train
TTITLE8=Arizona Dranes - Lamb's Blood Has Washed Me Clean
TTITLE9=Arizona Dranes - I'm Glad My Lord Has Saved Me
TTITLE10=Arizona Dranes and Choir - I Shall Wear a Crown
TTITLE11=Arizona Dranes and Choir - God's Got a Crown
TTITLE12=Arizona Dranes and Choir - He Is My Story
TTITLE13=Arizona Dranes and Choir - Just Look
TTITLE14=Arizona Dranes and Choir - I'll Go Where You Want Me to Go
TTITLE15=Arizona Dranes and Choir - Don't You Want to Go?
TTITLE16=Texas Jubilee Singers - He's the Lily of the Valley
TTITLE17=Texas Jubilee Singers - He's Coming Soon
TTITLE18=Rev. Joe Lenley - Let Us Therefore Come
TTITLE19=Rev. Joe Lenley - Lord Who Shall Abide in Thy Tabernacle
TTITLE20=Southern Sanctified Singers - Soon We'll Gather at the River
TTITLE21=Southern Sanctified Singers - Where He Leads Me I Will Follow
EXTD=
EXTT0=
EXTT1=
EXTT2=
EXTT3=
EXTT4=
EXTT5=
EXTT6=
EXTT7=
EXTT8=
EXTT9=
EXTT10=
EXTT11=
EXTT12=
EXTT13=
EXTT14=
EXTT15=
EXTT16=
EXTT17=
EXTT18=
EXTT19=
EXTT20=
EXTT21=
PLAYORDER=
